<?xml version="1.0" encoding="utf-8"?>
<!-- Generator: Adobe Illustrator 28.3.0, SVG Export Plug-In . SVG Version: 6.00 Build 0)  -->
<svg version="1.1" id="Layer_1" xmlns="http://www.w3.org/2000/svg" xmlns:xlink="http://www.w3.org/1999/xlink" x="0px" y="0px"
	 viewBox="0 0 800 800" style="enable-background:new 0 0 800 800;" xml:space="preserve">
<style type="text/css">
	.st0{fill-rule:evenodd;clip-rule:evenodd;fill:#FFFFFF;}
</style>
<path class="st0" d="M400,91.7c-115.1,0-208.3,93.3-208.3,208.3c0,115.1,93.3,208.3,208.3,208.3c115.1,0,208.3-93.3,208.3-208.3
	C608.3,184.9,515.1,91.7,400,91.7z M141.7,300c0-142.7,115.7-258.3,258.3-258.3c142.7,0,258.3,115.7,258.3,258.3
	c0,31.4-5.6,61.4-15.8,89.2l76.2,78.9c8.6,8.9,15.7,16.3,21.1,22.4c5.3,6.1,10.6,13,13.8,21.1c11.1,28.2,2.2,61.5-24.6,77.9
	c-7.7,4.7-16.5,6.7-24,7.9c-7.7,1.3-17.5,2.3-29.1,3.6l-0.8,0.1c-15.3,1.6-18.2,2.1-20.2,2.9c-5.9,2.3-10.8,7.1-13.2,13.9
	c-0.8,2.4-1.4,5.8-2.9,21.5l-0.1,0.7c-1.2,12-2.2,22.1-3.4,30c-1.2,7.7-3,16.5-7.4,24.2c-15.6,27.4-48.6,37.7-77.2,25.6
	c-8.1-3.4-14.9-9.1-20.7-14.5c-6-5.5-13.1-12.9-21.7-21.8l-0.7-0.7L400,569.6L292.3,683.1l-0.5,0.5c-8.6,8.9-15.7,16.3-21.7,21.8
	c-5.8,5.4-12.6,11.1-20.7,14.5c-28.6,12.1-61.6,1.8-77.2-25.6c-4.4-7.7-6.2-16.5-7.4-24.2c-1.2-7.9-2.2-18-3.4-30l-0.1-0.7
	c-1.6-15.7-2.1-19.1-2.9-21.5c-2.4-6.8-7.3-11.6-13.2-13.9c-2-0.8-4.9-1.3-20.2-2.9l-0.8-0.1c-11.6-1.2-21.4-2.3-29.1-3.6
	c-7.5-1.3-16.3-3.2-24-7.9c-26.8-16.4-35.7-49.7-24.6-77.9c3.2-8.1,8.6-15,13.8-21.1c5.3-6.2,12.5-13.6,21.1-22.4l76.2-78.9
	C147.3,361.4,141.7,331.4,141.7,300z M180.9,437l-63.2,65.4c-9.2,9.5-15.4,15.9-19.7,21c-4.1,4.7-5,6.5-5.1,6.7
	c-3,7.6,0,14.1,3.9,16.7c0.3,0.1,2,0.7,6.5,1.4c6,1,14.3,1.9,26.9,3.2c0.8,0.1,1.7,0.2,2.5,0.3c11.3,1.2,21.4,2.2,30.3,5.7
	c20,7.7,35.2,23.7,42.4,43.7c3.2,9,4.2,19.1,5.4,30.9c0.1,0.8,0.2,1.7,0.2,2.5c1.3,13,2.1,21.6,3.1,28c0.8,5.4,1.5,7.2,1.6,7.3
	c2.7,4.5,8.1,6.7,14.2,4.2c0,0,1.7-0.9,6.2-5.1c4.8-4.5,11-10.9,20.2-20.3l0.1-0.1l90.7-95.5C277.1,538.3,217.6,495.5,180.9,437z
	 M453,552.9c69.9-14.6,129.4-57.4,166-115.9l63.2,65.4c9.2,9.5,15.4,15.9,19.7,21c4.1,4.7,5,6.5,5.1,6.7c3,7.6,0,14.1-3.9,16.7
	c-0.3,0.1-2,0.7-6.5,1.4c-6,1-14.3,1.9-26.9,3.2c-0.8,0.1-1.7,0.2-2.5,0.3c-11.3,1.2-21.4,2.2-30.3,5.7c-20,7.7-35.2,23.7-42.4,43.7
	c-3.2,9-4.2,19.1-5.3,30.9c-0.1,0.8-0.2,1.7-0.2,2.5c-1.3,13-2.1,21.6-3.1,28c-0.8,5.4-1.5,7.2-1.6,7.3c-2.7,4.5-8.2,6.7-14.2,4.1
	l0.1,0c0,0-1.7-0.9-6.2-5.1c-4.8-4.5-11-10.9-20.2-20.3l-0.1-0.1L453,552.9z M400,234.5c-1.9,3.4-4.1,7.2-6.6,11.8l-3.3,5.9
	c-0.2,0.4-0.5,0.9-0.7,1.4c-2.6,4.8-7,12.7-14.2,18.2c-7.4,5.6-16.3,7.5-21.4,8.7c-0.5,0.1-1,0.2-1.4,0.3l-6.4,1.4
	c-5.8,1.3-10.6,2.4-14.7,3.4c2.6,3.3,6.1,7.3,10.6,12.5l4.3,5.1c0.3,0.4,0.6,0.7,1,1.2c3.6,4.1,9.4,10.8,12.1,19.5
	c2.7,8.5,1.7,17.3,1.2,22.9c-0.1,0.6-0.1,1.1-0.2,1.6l-0.7,6.8c-0.6,6.3-1.1,11.3-1.4,15.4c3.5-1.5,7.4-3.4,12.1-5.5l6-2.7
	c0.4-0.2,0.9-0.4,1.3-0.6c4.8-2.3,13.1-6.2,22.4-6.2c9.3,0,17.6,3.9,22.4,6.2c0.5,0.2,0.9,0.4,1.3,0.6l6,2.7c4.7,2.2,8.6,4,12.1,5.5
	c-0.3-4.1-0.8-9.1-1.4-15.4l-0.7-6.8c0-0.5-0.1-1-0.2-1.6c-0.6-5.5-1.5-14.3,1.2-22.9c2.7-8.6,8.5-15.3,12.1-19.5
	c0.4-0.4,0.7-0.8,1-1.2l4.3-5.1c4.5-5.2,7.9-9.3,10.6-12.5c-4.1-1-8.8-2.1-14.7-3.4l-6.4-1.4c-0.4-0.1-0.9-0.2-1.4-0.3
	c-5.2-1.1-14.1-3.1-21.4-8.7c-7.2-5.5-11.6-13.4-14.2-18.2c-0.3-0.5-0.5-0.9-0.7-1.4l-3.3-5.9C404.1,241.7,401.9,237.8,400,234.5z
	 M367.1,193.3c5.7-7.5,16.2-18.3,32.9-18.3s27.1,10.8,32.9,18.3c5.5,7.2,11,17.1,16.7,27.2c0.3,0.5,0.5,0.9,0.8,1.4l3.3,5.9
	c0.8,1.4,1.4,2.4,1.9,3.4c0.9,0.2,2,0.5,3.3,0.8l6.4,1.4c0.5,0.1,1,0.2,1.6,0.4c10.9,2.5,21.8,4.9,30.1,8.2
	c9.2,3.6,21.7,10.7,26.5,26.2c4.7,15.2-1.2,28.1-6.4,36.3c-4.8,7.7-12.1,16.2-19.6,25c-0.3,0.4-0.7,0.8-1,1.2l-4.3,5.1
	c-1.1,1.3-2,2.4-2.7,3.2c0.1,1.2,0.2,2.6,0.4,4.5l0.7,6.8c0.1,0.5,0.1,1,0.1,1.5c1.1,11.7,2.2,23.1,1.8,32.1
	c-0.4,9.5-2.7,23.9-15.6,33.7c-13.3,10.1-28,7.9-37.3,5.2c-8.6-2.5-18.7-7.1-29-11.9c-0.5-0.2-1-0.4-1.5-0.7l-6-2.7
	c-1.1-0.5-2-0.9-2.8-1.3c-0.8,0.4-1.7,0.8-2.8,1.3l-6,2.7c-0.5,0.2-1,0.5-1.5,0.7c-10.2,4.7-20.4,9.4-29,11.9
	c-9.3,2.7-24,4.9-37.3-5.2c-12.9-9.8-15.2-24.2-15.6-33.7c-0.4-9.1,0.7-20.4,1.8-32.1c0-0.5,0.1-1,0.2-1.5l0.7-6.8
	c0.2-1.9,0.3-3.3,0.4-4.5c-0.7-0.9-1.6-1.9-2.7-3.2l-4.3-5.1c-0.3-0.4-0.7-0.8-1-1.2c-7.5-8.8-14.8-17.3-19.6-25
	c-5.2-8.3-11.2-21.1-6.4-36.3c4.8-15.5,17.3-22.5,26.5-26.2c8.3-3.3,19.2-5.7,30.1-8.2c0.5-0.1,1-0.2,1.6-0.4l6.4-1.4
	c1.3-0.3,2.4-0.5,3.3-0.8c0.5-0.9,1.1-2,1.9-3.4l3.3-5.9c0.3-0.5,0.5-0.9,0.8-1.4C356.1,210.4,361.6,200.5,367.1,193.3z"/>
</svg>
