<?xml version="1.0" encoding="utf-8"?>
<!-- Generator: Adobe Illustrator 28.3.0, SVG Export Plug-In . SVG Version: 6.00 Build 0)  -->
<svg version="1.1" id="_x32_" xmlns="http://www.w3.org/2000/svg" xmlns:xlink="http://www.w3.org/1999/xlink" x="0px" y="0px"
	 viewBox="0 0 800 800" style="enable-background:new 0 0 800 800;" xml:space="preserve">
<style type="text/css">
	.st0{fill:#FFFFFF;}
</style>
<g>
	<path class="st0" d="M603.5,123.4l-77.9,77.9l7.2,7.5c-5.2,4.2-10.4,8.2-15.4,11.8c-8.2,5.8-16,10.5-21.4,12.7
		c-0.3,0.2-1.8,0.6-4.7,0.5c-4.6,0.1-12.3-1.1-21.7-2.6c-9.4-1.4-20.7-3-33.5-3c-11.1,0-23.4,1.3-36.2,4.9
		c-12.9-3.5-25.1-4.9-36.2-4.8c-12.7,0-24,1.6-33.5,3c-9.4,1.4-17.1,2.6-21.6,2.6c-2.9,0-4.3-0.4-4.6-0.5
		c-5.7-2.3-14.2-7.5-23.1-13.9c-4.6-3.3-9.2-6.9-13.8-10.7l7.2-7.5l-77.9-77.9L0,326.9l77.9,77.9l22.8-23.6l50.3,43.9
		c1.4,8.4,4.1,16.4,7.1,23.9c2,4.8,4.2,9.4,6.4,13.8c-4.9,8.1-7.5,17.3-7.5,26.6c0,9.3,2.5,18.7,7.8,27.1
		c7.9,12.8,20.7,20.8,34.4,23.3c0.1,9.1,2.6,18.3,7.7,26.6c9.7,15.6,26.5,24.3,43.7,24.3c0.7,0,1.3-0.1,2-0.1
		c0.9,7.3,3.3,14.5,7.3,21.1c9.7,15.6,26.6,24.3,43.7,24.3c1.7,0,3.4-0.2,5.1-0.3c0.8,6.5,3,13.1,6.7,19
		c8.9,14.2,24.2,22.1,39.8,22.1c8.4,0,17-2.3,24.7-7l23.4-14.5c4.6,3,9.4,5.6,14.5,7.7c9.4,4,19.6,6.4,30.3,6.4
		c11.6,0.1,23.9-3.1,34.5-10.6c6.9-4.8,12.7-11.4,17.5-19.1c0.7,0,1.3,0.2,2.1,0.2c4.8,0,10.2-0.7,15.4-2.4c5.3-1.6,10.6-4,16.2-7.2
		c13.4-7.5,21.4-18.7,25.3-28.2c0.9-2.1,1.5-4,2-5.9c3.2-1,6.3-2.3,9.1-3.9c10.4-6,17.1-15,21.3-24.1c4.2-9.2,6-18.7,6-27.9
		c0-0.9-0.1-1.8-0.2-2.7c6.8-2.8,12.9-6.6,18-11.2c5.3-4.7,9.8-10.1,13.1-16.2c3.3-6.1,5.5-13.2,5.5-20.9c0-5-1-10.3-3.3-15.3
		c-0.7-1.6-1.8-3-2.7-4.5c4-7.1,8-15.1,11.3-23.7c2.5-6.5,4.6-13.4,5.8-20.5l52.5-45.8l24.6,25.5l77.9-77.9L603.5,123.4z
		 M216.8,500.7l-0.9,0.6c-2.3,1.5-4.8,2.1-7.4,2.1c-4.7,0-9.2-2.3-11.9-6.6c-1.4-2.4-2.1-4.8-2.1-7.3c0-4.7,2.3-9.2,6.6-11.9
		l30.9-19.2c2.4-1.5,4.8-2.1,7.3-2.1c4.7,0.1,9.2,2.3,11.9,6.6l15.9-9.9l-15.9,9.9c1.4,2.3,2.1,4.8,2.1,7.3c0,3.3-1.2,6.5-3.3,9
		l-26.5,16.5C221.1,497.1,218.9,498.9,216.8,500.7z M258,551.1c-2.4,1.4-4.8,2.1-7.3,2.1c-4.7,0-9.2-2.3-11.9-6.6
		c-1.4-2.3-2.1-4.8-2.1-7.4c0-3.3,1.2-6.4,3.3-8.9l26.5-16.5c2.4-1.5,4.6-3.2,6.6-5l1-0.6c2.4-1.5,4.8-2.1,7.3-2.1
		c4.8,0,9.2,2.3,11.9,6.6c1.4,2.3,2.1,4.8,2.1,7.3c0,4.7-2.3,9.2-6.6,11.9L258,551.1z M341.8,577.2L311,596.4
		c-2.3,1.5-4.8,2.1-7.3,2.1c-4.7,0-9.2-2.3-11.9-6.6c-1.4-2.4-2.1-4.8-2.1-7.4c0-4.7,2.3-9.2,6.6-11.9l30.9-19.2
		c2.4-1.5,4.8-2.1,7.3-2.1c4.7,0,9.2,2.3,11.9,6.6c1.4,2.4,2.1,4.8,2.1,7.3C348.4,570,346.1,574.5,341.8,577.2z M389.6,608.5
		c1,1.6,1.4,3.2,1.4,4.9c0,3.2-1.5,6.2-4.4,8l-26.5,16.4c-1.6,1-3.2,1.4-4.9,1.4c-3.2,0-6.2-1.5-8-4.4c-1-1.6-1.4-3.2-1.4-4.9
		c0-3.2,1.6-6.2,4.4-8h0l26.5-16.5c1.6-1,3.2-1.4,4.9-1.4C384.8,604,387.8,605.6,389.6,608.5l15.9-9.9L389.6,608.5z M595.4,492.3
		c-1.4,2.6-4.5,6.1-8.4,8.5c-3.9,2.4-8.5,3.8-12.9,3.8c-1.6,0-3,0.3-4.5,0.6c-2.7-0.6-5.3-1.4-8-2.4c-8.1-3.2-15.8-8.3-21.1-12.7
		c-2.7-2.2-4.8-4.1-6.3-5.5l-1.6-1.6l-0.3-0.4l-0.1-0.1h0c-5.2-5.7-14.1-6.1-19.8-0.8c-5.7,5.2-6.1,14.1-0.9,19.8
		c0.5,0.5,7.5,8.2,19.1,16.1c5.8,4,12.7,8,20.7,11.1c1.8,0.7,3.8,1.4,5.7,2c0.5,1.2,1.2,2.4,2.1,3.5l0,0c0.1,0.1,0.9,2.5,0.8,5.6
		c0.1,5.2-1.8,11.9-4.5,15.7c-1.3,1.9-2.7,3.1-4,3.9c-1.3,0.7-2.7,1.2-5.2,1.3l-0.9,0c-0.5,0-1,0.1-1.6,0.1c0,0,0,0,0,0
		c-12.2,0.1-23.5-5.2-31.9-10.9c-4.2-2.8-7.5-5.7-9.8-7.8c-1.1-1-2-1.9-2.5-2.4l-0.5-0.6l-0.1-0.1h0c-5.1-5.8-13.9-6.5-19.8-1.4
		c-5.9,5.1-6.5,13.9-1.4,19.8l0,0c0.5,0.6,7,8.1,18.3,15.8c7.4,5,17.1,10.2,28.6,13.2c-0.1,0.3-0.2,0.7-0.4,1
		c-1.5,3.3-3.6,6.8-9.3,10.1c-3.9,2.2-6.6,3.4-8.6,4c-2,0.6-3,0.7-4.4,0.7c-1.8,0-4.5-0.4-9.1-1.3c-0.8-0.2-1.6-0.2-2.5-0.3
		c-0.3-0.1-0.6-0.2-0.9-0.4c-4.7-2.2-10.3-6.1-14.5-9.5c-2.1-1.7-3.9-3.2-5.1-4.3l-1.4-1.2l-0.3-0.3l-0.1-0.1
		c-5.6-5.4-14.5-5.2-19.9,0.4c-5.3,5.6-5.1,14.5,0.5,19.8c0.3,0.3,6.2,5.9,14.5,11.9c1.5,1,3.1,2.1,4.7,3.1c-2.3,3.6-4.7,6.2-7,7.8
		c-3.7,2.6-7.8,3.8-13,3.8c-4.7,0-10.2-1.1-15.7-3.5c-1.8-0.8-3.6-1.8-5.4-2.8c1.1-3.9,1.6-8,1.6-12.1c0-8.4-2.3-17-7.1-24.7
		c-8.1-13-21.5-20.6-35.6-21.8c0-0.5,0.1-1,0.1-1.5c0-9.2-2.5-18.7-7.7-27.1v0c-9.7-15.7-26.6-24.3-43.7-24.3c-0.7,0-1.3,0.1-2,0.1
		c-0.9-7.3-3.3-14.5-7.3-21.1h0c-7.9-12.8-20.7-20.8-34.4-23.3c-0.1-9.1-2.6-18.3-7.7-26.6h0c-9.7-15.6-26.6-24.3-43.7-24.3
		c-9.3,0-18.7,2.5-27.1,7.8l-18,11.2c-0.4-1-1-2-1.4-2.9c-3.1-7.5-5.1-14.9-5.3-20l-0.4-7.9l-60.3-52.6l114.3-118.4
		c5.8,4.8,11.8,9.5,18,14c10.2,7.3,20.3,13.8,30.6,18.2c6.6,2.7,13.1,3.4,19,3.4c9.5,0,18.2-1.7,27.2-3c0.6-0.1,1.2-0.2,1.8-0.2
		c-12.4,10.7-23.3,22.2-32.5,33c-7.7,9.1-14.3,17.6-19.4,24.6c-5.1,6.9-9,12.6-10.8,14.8c-8.5,11.1-12.2,24.3-12.2,37.6
		c0,12.4,3.3,25.2,11.8,36.1c4.2,5.4,9.9,10.1,16.6,13.3c6.7,3.2,14.4,4.9,22.4,4.9c9.9,0,20.4-2.4,31.4-7.1
		c34.7-14.7,70.4-24.4,97.3-30.5c13.4-3,24.7-5.1,32.5-6.4c1.5-0.2,2.7-0.4,3.9-0.6l117.6,101.4l0,0l0,0.1
		C596.5,489.7,596.3,490.7,595.4,492.3z M609,406.9l-0.4,7.9c-0.2,4.5-1.8,10.9-4.3,17.5c-1.3,3.5-2.9,6.9-4.6,10.4l-103-88.8
		c-4-3.5-9.3-5.1-14.6-4.4c-0.9,0.2-76.5,9.7-151.6,41.3c-7.5,3.2-13.1,4.1-16.9,4.1c-3.1,0-4.9-0.5-6.3-1.2c-2-1-3.4-2.4-4.9-5
		c-1.4-2.6-2.3-6.5-2.3-10.5c-0.1-5.8,2-11.8,4.3-14.6c2.9-3.8,6.5-8.9,11.4-15.5c7.3-9.9,17.2-22.6,29-35
		c11.8-12.4,25.4-24.4,39.8-32.9c19.4-11.4,35.9-14.3,51.6-14.3c9.6,0,18.9,1.2,27.9,2.6c9,1.3,17.8,2.9,27.2,3
		c5.9,0,12.3-0.7,18.9-3.4l0.1,0c10.3-4.3,20.4-10.8,30.6-18.2c6.1-4.4,12.1-9.2,18-14l112.6,116.6L609,406.9z"/>
</g>
</svg>
